<svg width="293" height="224" viewBox="0 0 293 224" fill="none" xmlns="http://www.w3.org/2000/svg">
<path d="M293 56V200C293 213.25 280.696 224 265.531 224H27.4688C12.3037 224 0 213.25 0 200V56C0 42.75 12.3037 32 27.4688 32H77.8281L84.867 15.55C88.8729 6.2 99.1164 0 110.562 0H182.381C193.826 0 204.07 6.2 208.076 15.55L215.172 32H265.531C280.696 32 293 42.75 293 56ZM215.172 128C215.172 94.9 184.384 68 146.5 68C108.616 68 77.8281 94.9 77.8281 128C77.8281 161.1 108.616 188 146.5 188C184.384 188 215.172 161.1 215.172 128ZM196.859 128C196.859 152.25 174.255 172 146.5 172C118.745 172 96.1406 152.25 96.1406 128C96.1406 103.75 118.745 84 146.5 84C174.255 84 196.859 103.75 196.859 128Z" fill="black"/>
</svg>
