<svg width="229" height="152" viewBox="0 0 229 152" fill="none" xmlns="http://www.w3.org/2000/svg">
<rect width="229" height="152" rx="40" fill="white"/>
<rect x="27.5" y="37.5" width="174" height="94" rx="14.5" fill="#E1EFDD" stroke="black"/>
<path d="M153.5 82.5C153.5 100.657 136.337 115.5 115 115.5C93.663 115.5 76.5 100.657 76.5 82.5C76.5 64.3432 93.663 49.5 115 49.5C136.337 49.5 153.5 64.3432 153.5 82.5Z" fill="#111111" stroke="black"/>
<ellipse cx="115" cy="82" rx="30" ry="26" fill="#E1EFDD"/>
<path d="M89 14.5H139C145.351 14.5 150.5 19.6487 150.5 26V37.5H77.5V26C77.5 19.6487 82.6487 14.5 89 14.5Z" fill="#E1EFDD" stroke="black"/>
<rect x="78" y="35" width="22" height="4" fill="#E1EFDD"/>
<rect x="128" y="34" width="22" height="4" fill="#E1EFDD"/>
<rect x="78" y="35" width="22" height="4" fill="#E1EFDD"/>
<ellipse cx="151" cy="55.5" rx="4" ry="3.5" fill="black"/>
<path d="M166 32C166 31.4477 166.448 31 167 31H186C186.552 31 187 31.4477 187 32V37H166V32Z" fill="#111111"/>
</svg>
