<svg width="35" height="26" viewBox="0 0 35 26" fill="none" xmlns="http://www.w3.org/2000/svg">
<path d="M4.93227 24.5131H30.0677C32.2395 24.5131 34 22.7525 34 20.5808V17.7182C34 17.0829 33.5844 16.5223 32.9765 16.3378L17.5 11.6393L2.02355 16.3378C1.41562 16.5223 1 17.0829 1 17.7182V20.5808C1 22.7525 2.76054 24.5131 4.93227 24.5131Z" stroke="white" stroke-width="2" stroke-linecap="round"/>
<path d="M17.4099 11.6393C17.4099 11.0383 17.4099 10.377 17.4099 9.65574C17.4099 8.57377 21.7378 8.93892 21.7378 5.32787C21.7378 2.93765 19.8001 1 17.4099 1C15.0197 1 13.082 2.93765 13.082 5.32787" stroke="white" stroke-width="2" stroke-linecap="round"/>
</svg>
