<svg width="30" height="80" viewBox="0 0 90 79" fill="none" xmlns="http://www.w3.org/2000/svg">
<path d="M44.2747 77.6625L44.2723 77.6607C38.7476 73.5582 17.462 57.1729 6.14466 40.3019C-0.323155 30.6602 -1.08004 18.7605 6.10173 9.94831L6.10174 9.94832L6.10587 9.94319C8.23321 7.29748 10.8987 5.13421 13.9255 3.59682C16.9524 2.05942 20.2714 1.18302 23.6627 1.02573C27.0539 0.868429 30.4399 1.43383 33.5961 2.68444C36.7522 3.93505 39.6065 5.8423 41.9696 8.27973L41.9726 8.28285L44.0197 10.376C44.0197 10.376 44.0197 10.376 44.0197 10.376C44.1474 10.5066 44.2999 10.6103 44.4682 10.6812C44.6366 10.752 44.8174 10.7885 45 10.7885C45.1826 10.7885 45.3634 10.752 45.5318 10.6812C45.7001 10.6103 45.8526 10.5066 45.9803 10.376C45.9803 10.376 45.9803 10.376 45.9803 10.376L48.0273 8.28284L48.0303 8.27973C50.3935 5.8423 53.2477 3.93506 56.4039 2.68446C59.5601 1.43385 62.946 0.86845 66.3373 1.02575C69.7285 1.18304 73.0476 2.05944 76.0745 3.59683C79.1013 5.13422 81.7668 7.29749 83.8941 9.94321L83.8983 9.94831C91.08 18.7605 90.3232 30.6602 83.8554 40.3019C72.5379 57.1729 51.2524 73.5582 45.7277 77.6607L45.7252 77.6625C45.5158 77.819 45.2614 77.9036 45 77.9036C44.7386 77.9036 44.4842 77.819 44.2747 77.6625Z" stroke="red" stroke-width="4"/>
</svg>
