<svg viewBox="0 0 67 64" fill="none" xmlns="http://www.w3.org/2000/svg">
<path fill-rule="evenodd" clip-rule="evenodd" d="M33.6521 15.0624C34.0557 14.2792 34.3294 13.7475 34.6521 13.1214H32.672C32.9972 13.7656 33.2684 14.3021 33.6521 15.0624ZM27.1915 21.0215V17.3392C26.3529 17.7688 25.6568 18.1253 24.8802 18.5229C25.6681 19.3746 26.3463 20.108 27.1915 21.0215ZM42.0866 18.4886C41.1977 18.0823 40.4651 17.7478 39.6677 17.3835V20.6986C40.4106 20.0198 41.1637 19.3316 42.0866 18.4886ZM33.7824 15.9344L33.5335 15.9357C33.186 18.2456 32.9359 20.577 32.4559 22.8574C32.1338 24.3873 32.5418 25.4675 33.8179 26.5239C34.2344 25.7378 35.0019 24.9717 34.9409 24.2835C34.693 21.4876 34.1906 18.7152 33.7824 15.9344ZM32.5861 48.2331H34.2485V30.8361H32.5861V48.2331ZM39.6057 48.4377C41.1347 48.4377 42.526 48.4477 43.9167 48.4254C44.1029 48.4225 44.3293 48.2987 44.4646 48.1575C47.4025 45.0871 50.3203 41.9963 53.2646 38.9324C54.6017 37.5412 55.4353 37.5622 56.8017 38.9602C59.6959 41.921 62.5845 44.888 65.4683 47.8598C67.3003 49.7478 67.3056 50.5041 65.4828 52.3537C64.3878 53.4646 63.262 54.5432 62.0054 55.779C63.3769 57.1449 64.6178 58.3664 65.842 59.6054C67.0486 60.8262 67.1377 61.8774 66.1515 62.9337C65.0301 64.1345 63.9603 64.1439 62.7153 62.9638C62.2322 62.5054 61.7475 62.0487 61.1322 61.4669C61.0759 62.9786 60.3288 63.4961 59.0143 63.4535C57.0688 63.3901 56.641 62.998 56.6407 60.9698C56.64 59.7599 56.6709 58.5487 56.6334 57.3402C56.5834 55.726 56.4526 54.1017 58.2339 53.3751C56.0792 51.1267 54.0025 48.9597 51.8947 46.7598C50.8705 47.7431 49.5016 48.5075 49.9894 50.1602C49.0181 50.5536 48.1896 50.9913 47.3094 51.2072C46.7904 51.3342 46.1792 51.1577 45.6281 51.0313C45.0163 50.8907 44.4269 50.4851 43.8257 50.4812C36.871 50.4372 29.9155 50.4346 22.9608 50.4673C22.3917 50.4699 21.8347 50.8691 21.2534 50.9819C20.6353 51.1021 19.9671 51.2418 19.3714 51.1173C18.5925 50.9551 17.8634 50.5416 16.9449 50.168C17.3293 48.6061 16.1076 47.7253 14.9576 46.7469C12.8541 48.9526 10.7831 51.1241 8.63282 53.3783C10.417 54.1046 10.3044 55.7176 10.2569 57.334C10.2144 58.7698 10.2326 60.2082 10.2512 61.6447C10.2654 62.7133 9.71457 63.2343 8.75078 63.4008C6.76815 63.7428 6.06606 63.3226 5.75182 61.4921C5.08811 62.1085 4.48291 62.6939 3.85317 63.2505C2.86956 64.1197 1.72144 64.0004 0.745695 62.9521C-0.161478 61.9773 -0.202685 60.9281 0.729968 59.9548C2.04166 58.5859 3.40839 57.2729 4.91008 55.778C3.53988 54.4321 2.28324 53.2219 1.05364 51.9829C-0.261821 50.6574 -0.37569 49.8341 0.882526 48.4956C4.07588 45.0978 7.34158 41.7714 10.6085 38.4476C11.3764 37.6663 12.4487 37.7329 13.2681 38.5801C16.3259 41.7407 19.3544 44.9313 22.4009 48.1035C22.5405 48.249 22.7443 48.4203 22.9211 48.4235C24.3445 48.4497 25.7685 48.438 27.2434 48.438V27.1451C26.2969 26.2604 25.4423 25.5209 24.654 24.7128C23.0394 23.0578 21.4616 21.3647 19.8659 19.6901C18.4384 18.1922 18.7275 16.459 20.551 15.575C23.0114 14.3823 25.4583 13.1582 27.9376 12.0088C28.5526 11.7237 29.2682 11.5546 29.9426 11.5388C32.2964 11.4829 34.653 11.4868 37.0072 11.5382C37.6454 11.5524 38.3255 11.7088 38.9064 11.9803C41.4506 13.1695 43.9676 14.4201 46.49 15.6574C48.0672 16.4309 48.4182 18.1512 47.2037 19.4871C45.2205 21.6686 43.1797 23.7948 41.1621 25.9437C41.0857 26.0251 41.0117 26.1499 40.9196 26.1689C39.2474 26.5187 39.6104 27.8633 39.6088 29.0115C39.6022 35.1306 39.6057 41.25 39.6057 47.3691V48.4377Z" fill="#000"/>
<path fill-rule="evenodd" clip-rule="evenodd" d="M46.8205 41.7633C43.8055 41.7177 41.5322 39.309 41.6008 36.2321C41.6659 33.313 44.1062 30.893 46.958 30.9188C49.8783 30.9457 52.1941 33.3683 52.1632 36.365C52.1315 39.4703 49.8173 41.8085 46.8205 41.7633Z" fill="#000"/>
<path fill-rule="evenodd" clip-rule="evenodd" d="M19.9913 41.7614C17.0002 41.7604 14.7106 39.3811 14.7244 36.2884C14.7376 33.2943 17.1242 30.9257 20.1209 30.9324C22.8774 30.9389 25.2645 33.4278 25.2859 36.3178C25.3085 39.3992 23.0101 41.7627 19.9913 41.7614Z" fill="#000"/>
<path fill-rule="evenodd" clip-rule="evenodd" d="M28.7447 5.14363C28.7303 2.21773 30.7752 -0.00772095 33.4709 -0.000286604C36.1232 0.00714774 38.1656 2.20545 38.177 5.06412C38.1886 7.94864 36.1924 10.1531 33.5473 10.1773C30.7661 10.2025 28.7595 8.09992 28.7447 5.14363Z" fill="#000"/>
</svg>
