<svg viewBox="0 0 170 133" fill="none" xmlns="http://www.w3.org/2000/svg">
<path fill-rule="evenodd" clip-rule="evenodd" d="M169.551 39.5677C155.028 12.8164 132.201 3.51957 120.982 0.47756C120.813 0.413755 120.644 0.378725 120.469 0.340566C120.191 0.267378 119.881 0.184806 119.62 0.114746C118.605 -0.13985 117.548 0.0321739 116.673 0.601418C116.194 0.910436 115.821 1.32705 115.53 1.80746C103.335 7.70946 92.1031 9.70119 82.5001 9.70119C72.852 9.70431 64.8295 7.73823 59.2481 5.76527C56.4581 4.77879 54.2806 3.80857 52.8181 3.08607C52.7415 3.04479 52.6876 3.02227 52.6103 2.98411C52.3135 2.27162 51.8822 1.62918 51.2244 1.2182C50.3275 0.652087 49.2227 0.496326 48.2071 0.782199C34.9134 4.54296 23.2095 13.1748 14.6887 20.8014C6.18357 28.4406 0.890295 35.1376 0.800536 35.2527C-0.351895 36.7102 -0.249582 38.7908 1.03968 40.1301L22.1268 62.1442C23.4619 63.5348 25.6387 63.6874 27.1583 62.4945L32.6562 58.1545V129.271C32.6562 130.251 33.0586 131.212 33.7572 131.905C34.4501 132.598 35.4174 133 36.4041 133H129.452C130.445 133 131.405 132.598 132.102 131.905C132.8 131.212 133.2 130.251 133.2 129.271V58.8032L139.454 64.9091C140.85 66.274 143.052 66.3409 144.531 65.0648L168.714 44.1548C170.036 43.0163 170.381 41.1009 169.551 39.5677Z" fill="#FF7657"/>
<path fill-rule="evenodd" clip-rule="evenodd" d="M81.8522 16.8361C81.8617 16.8361 81.8749 16.8361 81.8813 16.8361C90.9239 16.8361 101.259 15.2312 112.294 10.8889C110.113 16.4403 106.922 20.647 102.711 23.6284C97.9499 26.99 91.9294 28.7753 84.6464 28.7778C80.5858 28.7778 76.1495 28.2053 71.4074 27.0466C64.4168 25.293 60.1187 21.451 57.1281 16.9276C56.0809 15.3389 55.2844 13.6643 54.5872 11.9966C60.8836 14.3289 70.2806 16.8262 81.8522 16.8361Z" fill="#FBEED7"/>
<path fill-rule="evenodd" clip-rule="evenodd" d="M60.8257 104.611C55.9908 100.8 52.7936 83.9222 52.7936 83.9222C52.7936 83.9222 70.0275 83.3777 74.8624 87.1888C79.6972 91.0777 80.4771 98.0777 76.578 102.9C72.6789 107.644 65.6606 108.422 60.8257 104.611Z" fill="#79DE5E"/>
<path fill-rule="evenodd" clip-rule="evenodd" d="M72.9908 91.2333C68.078 87.3444 50.6881 87.8888 50.6881 87.8888C50.6881 87.8888 53.9633 104.844 58.8762 108.733C63.789 112.622 70.8853 111.844 74.7844 106.944C78.6835 102.2 77.9037 95.1222 72.9908 91.2333Z" fill="#79DE5E"/>
<path fill-rule="evenodd" clip-rule="evenodd" d="M76.5 98.3888C72.6789 103.211 65.5826 103.989 60.7477 100.1C58.1743 97.9999 55.445 92.4777 53.5734 87.7333C54.8211 92.9444 57.3945 101.889 60.7477 104.611C65.5826 108.422 72.6009 107.644 76.5 102.9C78.6835 100.178 79.3853 96.8333 78.6835 93.6444C78.3716 95.2777 77.6697 96.9111 76.5 98.3888Z" fill="#79DE5E"/>
<path d="M67.7661 108.111C65.1147 108.111 62.5413 107.178 60.4358 105.467C55.5229 101.5 52.4037 84.8555 52.2477 84.1555C52.1697 83.9222 52.2477 83.6888 52.4037 83.5333C52.5596 83.3777 52.7156 83.2222 52.9495 83.2222C52.9495 83.2222 53.8073 83.2222 55.211 83.2222C61.0596 83.2222 71.3532 83.6888 75.0963 86.7222C80.1651 90.8444 80.945 98.4666 76.9679 103.6C74.7064 106.478 71.3532 108.111 67.7661 108.111ZM53.9633 84.7777C54.6651 88.2777 57.5505 101.111 61.4495 104.222C63.2431 105.7 65.5046 106.478 67.844 106.478C70.9633 106.478 73.8486 105.078 75.7982 102.589C79.3073 98.0777 78.6055 91.5444 74.1606 87.8888C71.7431 85.9444 64.7248 84.7777 55.289 84.7777C54.7431 84.7777 54.2752 84.7777 53.9633 84.7777Z" fill="#46600E"/>
<path fill-rule="evenodd" clip-rule="evenodd" d="M85.7798 104.222C73.7706 104.222 65.4266 95.1221 65.0367 94.6555C64.7248 94.3444 64.8027 93.8777 65.1147 93.5666C65.4266 93.2555 65.8945 93.3332 66.2064 93.6444C66.2844 93.7221 74.3945 102.744 85.7018 102.822C86.9495 102.822 88.1972 102.744 89.5229 102.511C89.9128 102.433 90.3807 102.744 90.4587 103.133C90.5367 103.522 90.2248 103.989 89.8349 104.067C88.4312 104.222 87.1055 104.222 85.7798 104.222Z" fill="#46600E"/>
<path fill-rule="evenodd" clip-rule="evenodd" d="M63.555 42.6999C69.0917 40.0555 85.7798 44.411 85.7798 44.411C85.7798 44.411 78.8395 60.1222 73.3028 62.7666C67.7661 65.411 61.0596 63.0777 58.4083 57.5555C55.6789 52.0333 58.0184 45.4222 63.555 42.6999Z" fill="#79DE5E"/>
<path fill-rule="evenodd" clip-rule="evenodd" d="M63.3211 46.1221C57.7064 48.8443 55.367 55.611 58.0184 61.211C60.7477 66.8888 67.5321 69.2221 73.1468 66.5777C78.7615 63.8555 85.7798 47.911 85.7798 47.911C85.7798 47.911 68.9358 43.3999 63.3211 46.1221Z" fill="#79DE5E"/>
<path fill-rule="evenodd" clip-rule="evenodd" d="M73.2248 58.5666C67.6881 61.2111 60.9817 58.8777 58.3303 53.3555C57.9404 52.5 57.6284 51.5666 57.4725 50.6333C57.0046 52.8888 57.2385 55.3777 58.3303 57.6333C60.9817 63.1555 67.6881 65.4888 73.2248 62.8444C77.5138 60.8222 82.5826 51.0222 84.7661 46.6666C81.1789 51.3333 76.422 57.0888 73.2248 58.5666Z" fill="#79DE5E"/>
<path fill-rule="evenodd" clip-rule="evenodd" d="M105.899 69.2221C99.6606 69.0666 94.5138 73.9666 94.3578 80.111C94.2018 86.2554 105.197 99.5555 105.197 99.5555C105.197 99.5555 116.817 86.7999 116.972 80.6554C117.128 74.4332 112.138 69.3777 105.899 69.2221Z" fill="#79DE5E"/>
<path d="M68.2339 64.5555C63.633 64.5555 59.344 61.9111 57.3165 57.8666C54.4312 52.0333 57.0046 44.9555 63.0092 42.1555C64.3349 41.5333 66.2064 41.2222 68.7018 41.2222C75.8762 41.2222 85.5459 43.7111 85.9358 43.7888C86.1697 43.8666 86.3257 44.0222 86.4817 44.1777C86.5596 44.4111 86.5596 44.6444 86.4817 44.7999C86.1697 45.4222 79.3073 60.5888 73.4587 63.3111C71.8211 64.1666 70.0275 64.5555 68.2339 64.5555ZM68.7018 42.7777C66.4404 42.7777 64.7248 43.0111 63.633 43.5555C58.4083 45.9666 56.2248 52.1111 58.7202 57.2444C60.4358 60.7444 64.1789 63.0777 68.2339 63.0777C69.7936 63.0777 71.3532 62.7666 72.7569 62.0666C77.3578 59.8888 83.1285 48.3777 84.6101 45.1111C82.0367 44.4888 74.4725 42.7777 68.7018 42.7777Z" fill="#46600E"/>
<path fill-rule="evenodd" clip-rule="evenodd" d="M52.2477 70.0777C52.1697 70.0777 52.0918 70.0777 52.0138 70.0777C51.6239 69.9999 51.3899 69.5332 51.4679 69.1444C55.367 55.2999 70.0275 51.0999 70.6514 50.9443C71.0413 50.8666 71.5092 51.0999 71.5872 51.4888C71.6651 51.8777 71.4312 52.3443 71.0413 52.4221C70.8853 52.4999 56.6147 56.6221 52.9495 69.5332C52.9495 69.8444 52.6376 70.0777 52.2477 70.0777Z" fill="#46600E"/>
<path fill-rule="evenodd" clip-rule="evenodd" d="M118.064 76.0667C117.908 82.2111 106.445 95.0444 106.445 95.0444C106.445 95.0444 95.5275 81.7445 95.6835 75.6C95.8394 69.4556 100.908 64.5556 107.147 64.7111C113.307 64.7889 118.142 69.9222 118.064 76.0667Z" fill="#79DE5E"/>
<path fill-rule="evenodd" clip-rule="evenodd" d="M106.445 91C106.445 91 97.555 80.1111 95.9174 73.5C95.7615 74.2 95.6835 74.8222 95.6835 75.6C95.5275 81.7444 106.445 95.0444 106.445 95.0444C106.445 95.0444 117.908 82.2111 118.064 76.0667C118.064 75.2111 117.986 74.3556 117.83 73.5778C116.193 80.1111 106.445 91 106.445 91Z" fill="#79DE5E"/>
<path d="M106.757 95.6666C106.523 95.6666 106.289 95.5888 106.133 95.3555C105.743 94.811 94.9817 81.8222 95.1376 75.4444C95.2936 68.9888 100.674 63.7777 107.225 63.7777H107.537C114.165 63.9333 119.468 69.3777 119.312 75.9888C119.156 82.3666 107.849 94.8888 107.381 95.4333C107.225 95.5888 106.991 95.6666 106.757 95.6666ZM107.225 65.3333C101.532 65.3333 96.8532 69.8444 96.6973 75.4444C96.6193 80.4999 104.573 90.8444 106.835 93.6444C109.174 90.9222 117.674 80.8888 117.752 75.911C117.908 70.1555 113.307 65.411 107.459 65.3333H107.225Z" fill="#46600E"/>
<path fill-rule="evenodd" clip-rule="evenodd" d="M106.757 79.3333C106.679 79.3333 106.679 79.3333 106.601 79.3333C106.211 79.2555 105.899 78.8666 105.977 78.4C105.977 78.2444 108.784 63.7 98.8807 54.5222C98.5688 54.2111 98.5688 53.7444 98.8028 53.4333C99.1147 53.1222 99.5826 53.1222 99.8945 53.3555C110.5 63.0778 107.615 78.0111 107.459 78.6333C107.459 79.1 107.147 79.3333 106.757 79.3333Z" fill="#46600E"/>
<path opacity="0.5" fill-rule="evenodd" clip-rule="evenodd" d="M61.7615 49.0777C61.6055 49.0777 61.4495 49.0777 61.3716 49C60.9817 48.7666 60.9037 48.3 61.1376 47.9111C61.2156 47.7555 63.4771 44.1777 71.5092 44.1777C73.8486 44.1777 80.789 45.3444 81.1009 45.4222C81.4908 45.5 81.8028 45.8888 81.7248 46.3555C81.6468 46.7444 81.2569 47.0555 80.789 46.9777C80.711 46.9777 73.6927 45.8111 71.5092 45.8111C64.4908 45.8111 62.4633 48.7666 62.4633 48.7666C62.3073 48.9222 62.0734 49.0777 61.7615 49.0777Z" fill="white"/>
<path opacity="0.5" fill-rule="evenodd" clip-rule="evenodd" d="M75.4862 95.3555C75.1743 95.3555 74.8624 95.2 74.7844 94.8889C74.7844 94.8111 73.0688 90.6889 69.1697 89.2111C65.0367 87.5778 57.2385 87.6555 57.1606 87.6555C56.6927 87.6555 56.3807 87.3444 56.3807 86.8778C56.3807 86.4111 56.6927 86.1 57.1606 86.1C57.4725 86.1 65.3486 86.1 69.7156 87.8111C74.2385 89.6 76.1101 94.1889 76.1881 94.4222C76.344 94.8111 76.1101 95.2778 75.7202 95.4333C75.6422 95.3555 75.5642 95.3555 75.4862 95.3555Z" fill="white"/>
<path opacity="0.5" fill-rule="evenodd" clip-rule="evenodd" d="M114.633 74.9777C114.243 74.9777 113.853 74.6666 113.853 74.2777C113.697 72.0999 110.812 69.9221 109.72 69.2221C109.33 68.9888 109.252 68.5221 109.486 68.1333C109.72 67.7444 110.188 67.6666 110.578 67.8999C110.734 67.9777 115.257 70.6999 115.413 74.1999C115.413 74.511 115.101 74.8999 114.633 74.9777Z" fill="white"/>
<path opacity="0.5" fill-rule="evenodd" clip-rule="evenodd" d="M99.0367 75.5222C98.9587 75.5222 98.8807 75.5222 98.8028 75.5222C98.4128 75.4444 98.1789 74.9778 98.2569 74.5889C98.3349 74.4333 99.3486 70.7778 102.702 68.6778C103.092 68.4444 103.56 68.6 103.794 68.9111C104.028 69.3 103.872 69.7667 103.56 70C100.752 71.7111 99.8165 74.9778 99.8165 74.9778C99.6606 75.2889 99.3486 75.5222 99.0367 75.5222Z" fill="white"/>
</svg>
