<svg viewBox="0 0 62 56" fill="none" xmlns="http://www.w3.org/2000/svg">
<path fill-rule="evenodd" clip-rule="evenodd" d="M57.3393 23.5234C55.4454 18.3984 53.5863 13.3671 51.6038 8.00229C49.5518 13.3575 47.6267 18.3822 45.6566 23.5234H57.3393ZM16.4603 29.0326C14.514 23.7933 12.5774 18.5796 10.522 13.0458C8.54741 18.5366 6.70834 23.6515 4.77342 29.0326H16.4603ZM13.0862 9.02782C14.1775 11.9591 15.2019 14.7859 16.2812 17.5907C17.5579 20.9087 18.8133 24.2378 20.2028 27.5078C22.0146 31.7726 21.309 35.5794 18.1637 38.8262C14.9978 42.0941 11.0657 42.7699 6.88579 41.2491C2.63914 39.7041 0.385476 36.447 0.0116915 31.938C-0.0591947 31.0817 0.203364 30.1486 0.499034 29.3186C2.6515 23.2785 4.83871 17.2511 7.05227 11.2335C7.36683 10.3784 7.34911 9.74026 6.74588 8.99445C5.43961 7.38011 6.03095 6.03186 8.16477 5.72982C11.8555 5.2073 15.5547 4.74119 19.251 4.25934C22.099 3.88796 24.9517 3.54972 27.7932 3.13556C28.1323 3.0862 28.6196 2.69883 28.6919 2.38668C29.1219 0.527664 29.4635 0.07425 30.7276 0.0232438C31.99 -0.0277623 32.4288 0.392745 32.9922 2.18572C33.0139 2.25435 33.0694 2.31217 33.1839 2.4941C35.6611 2.1977 38.1974 1.89919 40.7325 1.5901C44.8572 1.08685 48.981 0.574439 53.1059 0.0737799C53.5294 0.0223036 53.9586 0.0206583 54.3856 0.00255933C55.2677 -0.0352839 55.8723 0.345734 56.1715 1.19968C56.4872 2.10086 56.2338 2.81565 55.4778 3.35698C55.166 3.58004 54.8272 3.76526 54.4341 4.00901C54.8638 5.20354 55.2754 6.37903 55.7089 7.54606C57.6146 12.6779 59.5232 17.8086 61.4376 22.937C63.2848 27.885 60.4291 33.5909 55.1047 35.5759C51.1915 37.0347 46.074 35.696 43.45 32.4425C42.636 31.4334 41.8408 30.3416 41.3418 29.1571C40.5322 27.2349 40.5721 25.2894 41.392 23.2508C43.6965 17.5212 45.8345 11.7234 48.0345 5.95124C48.1847 5.55706 48.3036 5.15065 48.5025 4.55386C43.2418 5.21177 38.1485 5.84899 32.9271 6.50196V7.8434C32.9271 13.719 32.9204 19.5948 32.9292 25.4704C32.9376 31.1389 32.897 36.8088 33.0006 42.4756C33.0789 46.7789 35.181 49.829 39.2931 51.0855C42.0635 51.9317 44.9682 52.3313 47.8121 52.934C48.4188 53.0626 49.1748 53.0294 49.5856 53.3905C50.0245 53.7764 50.2956 54.5262 50.3497 55.1432C50.415 55.8888 49.7801 56.0007 49.1221 56C37.1922 55.9852 25.2626 55.9791 13.3327 55.9993C12.4144 56.0009 11.9075 55.5677 11.7823 54.7657C11.6272 53.7703 12.31 53.1947 13.1578 53.0278C14.5641 52.7511 15.9986 52.6129 17.4252 52.4521C20.0436 52.1574 22.5481 51.5256 24.7409 49.9749C27.377 48.1105 28.7183 45.5195 28.7497 42.2932C28.7954 37.5995 28.7682 32.9048 28.7677 28.2106C28.7672 21.6371 28.7649 15.0639 28.7586 8.4905C28.7572 6.98875 28.7483 6.98617 27.2567 7.17515C22.98 7.71765 18.7035 8.26109 14.4275 8.80828C14.0136 8.86117 13.6034 8.94226 13.0862 9.02782Z" fill="#000"/>
</svg>
