<svg viewBox="0 0 45 47" fill="none" xmlns="http://www.w3.org/2000/svg">
<path d="M0 36.2412L8.11797 27.8949C9.22779 26.7539 10.5322 25.8372 11.9646 25.1914L12.4465 24.9743C14.1452 24.2085 16.0645 24.1618 17.7959 24.8439L20.894 26.0646H27.3422C29.1366 26.0646 30.5913 27.5756 30.5913 29.4395C30.5913 31.3034 29.1366 32.8144 27.3422 32.8144H20.894L22.4936 34.6836H29.1917L39.5802 26.7276C40.4949 26.0272 41.6014 25.6492 42.7378 25.6492H43.4568C44.0813 25.6492 44.6449 26.038 44.8872 26.6357C45.1263 27.2255 44.9772 27.908 44.5165 28.3329L33.5446 38.4504C31.642 40.2048 29.1862 41.1738 26.6421 41.1738H12.6964L9.79721 46.1063L0 36.2412ZM29.1917 20.7295C26.9832 20.7295 25.1928 19.0193 25.1928 16.9096C25.1928 15.5031 26.5258 13.5357 29.1917 11.0074C31.8576 13.5357 33.1905 15.5031 33.1905 16.9096C33.1905 19.0193 31.4002 20.7295 29.1917 20.7295ZM22.8935 10.3452C21.734 10.3452 20.7941 9.47528 20.7941 8.40213C20.7941 7.6867 21.4939 6.68594 22.8935 5.39984C24.2931 6.68594 24.9929 7.6867 24.9929 8.40213C24.9929 9.47528 24.0529 10.3452 22.8935 10.3452ZM32.4907 4.9454C31.3313 4.9454 30.3913 4.07544 30.3913 3.00229C30.3913 2.28686 31.0911 1.2861 32.4907 0C33.8903 1.2861 34.5901 2.28686 34.5901 3.00229C34.5901 4.07544 33.6502 4.9454 32.4907 4.9454Z" fill="#F87117"/>
</svg>
