<svg viewBox="0 0 62 84" fill="none" xmlns="http://www.w3.org/2000/svg">
  <path d="M58.35 38.66L58.23 38.47L32.65 0.890008C32.4667 0.619832 32.22 0.398643 31.9315 0.245757C31.643 0.0928717 31.3215 0.0129395 30.995 0.0129395C30.6685 0.0129395 30.3469 0.0928717 30.0584 0.245757C29.77 0.398643 29.5233 0.619832 29.34 0.890008L3.76997 38.47L3.64997 38.66C1.16947 43.3707 -0.0522618 48.6422 0.103139 53.9638C0.25854 59.2854 1.78581 64.4767 4.53697 69.0346C7.28812 73.5925 11.1699 77.3626 15.8062 79.9796C20.4425 82.5965 25.6761 83.9716 31 83.9716C36.3238 83.9716 41.5575 82.5965 46.1937 79.9796C50.83 77.3626 54.7118 73.5925 57.463 69.0346C60.2141 64.4767 61.7414 59.2854 61.8968 53.9638C62.0522 48.6422 60.8305 43.3707 58.35 38.66V38.66ZM50 72.1C45.4513 76.6426 39.4271 79.4075 33.017 79.8945C26.607 80.3816 20.2342 78.5587 15.0514 74.7555C9.86851 70.9523 6.21775 65.42 4.75935 59.159C3.30096 52.8981 4.13121 46.322 7.09997 40.62L31 5.57001L54.86 40.62C57.5252 45.6965 58.4915 51.4942 57.6167 57.1608C56.7419 62.8273 54.0721 68.0636 50 72.1V72.1Z" fill="black"/>
  <path d="M23.9999 65.26C22.509 64.4199 21.1987 63.2938 20.144 61.9461C19.0893 60.5984 18.3111 59.0558 17.854 57.4067C17.3969 55.7576 17.2699 54.0344 17.4803 52.3361C17.6907 50.6378 18.2343 48.9977 19.0799 47.51C19.3452 47.0485 19.4162 46.5006 19.2774 45.9867C19.1386 45.4729 18.8014 45.0352 18.3399 44.77C17.8785 44.5048 17.3305 44.4338 16.8167 44.5725C16.3028 44.7113 15.8652 45.0485 15.5999 45.51C14.4957 47.4548 13.7861 49.5983 13.5116 51.8178C13.2372 54.0373 13.4034 56.2891 14.0007 58.4443C14.5981 60.5994 15.6147 62.6155 16.9925 64.3771C18.3703 66.1387 20.0821 67.6111 22.0299 68.71C22.2584 68.8413 22.5106 68.9264 22.7719 68.9602C23.0333 68.9941 23.2988 68.9762 23.5532 68.9075C23.8076 68.8388 24.046 68.7206 24.2548 68.5597C24.4636 68.3989 24.6386 68.1985 24.7699 67.97C24.9013 67.7415 24.9863 67.4894 25.0202 67.228C25.0541 66.9667 25.0361 66.7012 24.9674 66.4467C24.8987 66.1923 24.7805 65.9539 24.6197 65.7451C24.4588 65.5364 24.2584 65.3613 24.0299 65.23L23.9999 65.26Z" fill="black"/>
</svg>
