<svg viewBox="0 0 90 80" fill="none" xmlns="http://www.w3.org/2000/svg">
<path d="M43.6761 79.0122C44.0584 79.2978 44.5228 79.4522 45 79.4522C45.4772 79.4522 45.9416 79.2978 46.3238 79.0122C51.8426 74.9141 73.2612 58.4384 84.6858 41.4076C91.3352 31.4953 92.199 19.0992 84.6735 9.86515C82.4573 7.10898 79.6805 4.85541 76.5273 3.25383C73.3741 1.65225 69.9164 0.739267 66.3836 0.575404C62.8508 0.411541 59.3234 1.00054 56.0355 2.30336C52.7476 3.60618 49.7742 5.59305 47.3124 8.13224L45.2653 10.2254C45.2308 10.2608 45.1895 10.2889 45.1439 10.308C45.0984 10.3272 45.0494 10.3371 45 10.3371C44.9506 10.3371 44.9016 10.3272 44.8561 10.308C44.8105 10.2889 44.7692 10.2608 44.7347 10.2254L42.6876 8.13224C40.2258 5.59304 37.2524 3.60617 33.9644 2.30335C30.6765 1.00053 27.1492 0.41152 23.6164 0.575383C20.0835 0.739247 16.6259 1.65223 13.4727 3.25381C10.3194 4.8554 7.54271 7.10898 5.32655 9.86515C-2.19901 19.0992 -1.33515 31.4953 5.3142 41.4076C16.7388 58.4384 38.1574 74.9141 43.6761 79.0122Z" fill="red"/>
</svg>
